<?xml version="1.0" encoding="utf-8"?>
<!-- Generator: Adobe Illustrator 27.7.0, SVG Export Plug-In . SVG Version: 6.00 Build 0)  -->
<svg version="1.1" id="Capa_1" xmlns="http://www.w3.org/2000/svg" xmlns:xlink="http://www.w3.org/1999/xlink" x="0px" y="0px"
	 viewBox="0 0 250 58.77" style="enable-background:new 0 0 250 58.77;" xml:space="preserve">
<style type="text/css">
	.st0{fill:#FFFFFF;}
</style>
<g>
	<path class="st0" d="M46.15,37.51l-0.07,1.11c0,0.22-0.11,1.59-0.33,4.11c-0.17,1.91-0.26,3.39-0.26,4.43
		c0,1.31,0.02,2.39,0.07,3.26c0.04,0.31,0.06,0.67,0.06,1.11c0,0.48-0.11,0.72-0.33,0.72s-0.46-0.22-0.72-0.65
		c-0.96-1.57-1.98-2.58-3.07-3.07c-3.26,2.78-6.76,4.17-10.5,4.17c-5.7,0-10.72-2.13-15.07-6.39c-4.61-4.52-6.91-10.22-6.91-17.09
		c0-6.65,2.08-12.21,6.23-16.66c4.15-4.46,9.34-6.69,15.55-6.69c2.87,0,5.44,0.65,7.7,1.96c1.31,0.74,2.26,1.11,2.87,1.11
		c0.91,0,1.76-0.41,2.54-1.24c0.57-0.61,0.91-0.91,1.04-0.91c0.18,0,0.26,0.15,0.26,0.46c0,0.13-0.02,0.32-0.07,0.59
		c-0.26,1.48-0.39,3.3-0.39,5.48c0,0.22,0.02,1.11,0.06,2.68c0,1.52,0,2.54,0,3.07v1.44c0,0.78-0.22,1.17-0.65,1.17
		c-0.35,0-0.7-0.85-1.04-2.55C41.58,11.28,38,7.37,32.39,7.37c-4.43,0-7.65,2.87-9.65,8.61c-1.39,3.91-2.09,8.61-2.09,14.09
		c0,8.13,1.65,14.09,4.95,17.87c1.74,2,4.02,3,6.85,3c6.13,0,10.15-4.09,12.06-12.26c0.31-1.35,0.65-2.02,1.05-2.02
		C46,36.66,46.19,36.94,46.15,37.51z"/>
	<path class="st0" d="M76.22,43.83c0,0.96-0.57,2.22-1.7,3.78c-2.44,3.35-5.61,5.02-9.52,5.02c-4.39,0-8-1.39-10.83-4.17
		c-2.83-2.78-4.24-6.35-4.24-10.7c0-4.26,1.37-7.82,4.11-10.66c2.74-2.85,6.15-4.27,10.24-4.27c2.78,0,5.15,0.61,7.11,1.83
		c2.17,1.35,3.59,3.29,4.24,5.81c0.17,0.78,0.3,1.72,0.39,2.8c-1,0.12-5.02,0.2-12.06,0.26c-1.09,0-2.46,0.04-4.11,0.13
		c-0.13,1.56-0.19,2.88-0.19,3.96c0,5.07,1.06,8.66,3.2,10.79c1.26,1.26,2.81,1.88,4.63,1.88c1.52,0,2.99-0.52,4.4-1.57
		c1.41-1.04,2.49-2.39,3.23-4.04c0.35-0.83,0.63-1.24,0.85-1.24C76.13,43.44,76.22,43.57,76.22,43.83z M68,32.42
		c0.05-3.32-0.19-5.63-0.72-6.93c-0.52-1.29-1.44-1.94-2.74-1.94c-2.65,0-4.17,2.96-4.56,8.87c0.91,0,2.82,0,5.74,0
		C66.59,32.42,67.35,32.42,68,32.42z"/>
	<path class="st0" d="M103.54,29.48c0,1.04-0.31,1.89-0.91,2.54c-0.61,0.65-1.39,0.98-2.35,0.98c-2.31,0-3.46-1.02-3.46-3.07
		c0-0.52,0.14-1.14,0.42-1.86c0.28-0.72,0.42-1.23,0.42-1.53c0-0.83-0.32-1.53-0.94-2.12c-0.63-0.59-1.4-0.88-2.32-0.88
		c-3.96,0-5.93,4.41-5.93,13.24c0,5.04,0.87,8.65,2.61,10.83c1.35,1.65,3,2.48,4.96,2.48c2.04,0,4.13-1.33,6.26-3.98
		c0.26-0.35,0.5-0.52,0.72-0.52c0.18,0,0.26,0.13,0.26,0.39c0,0.83-0.78,1.98-2.35,3.46c-2.26,2.13-4.98,3.2-8.15,3.2
		c-3.91,0-7.25-1.4-10.01-4.21c-2.76-2.8-4.14-6.2-4.14-10.21c0-4.35,1.46-8.01,4.37-10.99c2.91-2.98,6.5-4.47,10.76-4.47
		c2.74,0,5.06,0.65,6.95,1.96C102.6,26.02,103.54,27.61,103.54,29.48z"/>
	<path class="st0" d="M122.52,51.4c0,0.3-0.2,0.46-0.58,0.46h-8.64h-6.24c-0.26,0-0.58,0-0.97,0c-0.35,0-0.54,0-0.58,0
		c-0.52,0-0.78-0.14-0.78-0.42c0-0.21,0.5-0.33,1.5-0.36c1.48-0.04,2.35-0.21,2.61-0.49c0.26-0.29,0.39-1.15,0.39-2.59V29.17
		c0-1.66-0.14-2.65-0.42-2.98c-0.28-0.33-1.14-0.49-2.58-0.49c-0.91,0-1.45-0.02-1.6-0.07c-0.15-0.04-0.23-0.2-0.23-0.46
		c0-0.3,0.33-0.46,0.98-0.46c4.78-0.04,8.87-0.78,12.26-2.22c0.08,0.52,0.2,1.96,0.33,4.3v8.29v12.26c0,1.78,0.16,2.83,0.49,3.13
		c0.33,0.31,1.45,0.46,3.36,0.46C122.28,50.94,122.52,51.09,122.52,51.4z M117.96,10.05c0,1.22-0.42,2.26-1.27,3.13
		c-0.85,0.87-1.87,1.31-3.07,1.31c-1.24,0-2.29-0.41-3.14-1.24c-0.84-0.83-1.27-1.87-1.27-3.13c0-1.22,0.42-2.22,1.27-3
		c0.85-0.78,1.93-1.17,3.27-1.17c1.2,0,2.2,0.39,3,1.17C117.56,7.89,117.96,8.87,117.96,10.05z"/>
	<path class="st0" d="M141.11,51.36c0,0.33-0.83,0.49-2.47,0.49c-0.39,0-1.6-0.05-3.64-0.13c-1.04-0.04-2.06-0.06-3.05-0.06
		c-0.95,0-2.73,0.04-5.33,0.13l-1.95,0.07c-0.96,0.04-1.43-0.11-1.43-0.46c0-0.35,0.5-0.5,1.5-0.46c1.52,0.04,2.4-0.11,2.64-0.46
		c0.24-0.35,0.36-1.65,0.36-3.91V12.26c0-1.48-0.16-2.35-0.46-2.64c-0.31-0.28-1.21-0.42-2.71-0.42c-1.1,0-1.65-0.16-1.65-0.49
		c0-0.37,0.56-0.58,1.69-0.62c4.85-0.17,8.81-0.91,11.88-2.22c0,1.31,0,8.94,0,22.9v16.24c0,2.96,0.07,4.69,0.23,5.19
		c0.15,0.5,0.68,0.73,1.6,0.68h1.96C140.83,50.88,141.11,51.04,141.11,51.36z"/>
	<path class="st0" d="M159.89,51.4c0,0.3-0.2,0.46-0.58,0.46h-8.64h-6.24c-0.26,0-0.58,0-0.97,0c-0.35,0-0.54,0-0.58,0
		c-0.52,0-0.78-0.14-0.78-0.42c0-0.21,0.5-0.33,1.5-0.36c1.48-0.04,2.35-0.21,2.61-0.49c0.26-0.29,0.39-1.15,0.39-2.59V29.17
		c0-1.66-0.14-2.65-0.42-2.98c-0.28-0.33-1.14-0.49-2.58-0.49c-0.91,0-1.45-0.02-1.6-0.07c-0.15-0.04-0.23-0.2-0.23-0.46
		c0-0.3,0.33-0.46,0.98-0.46c4.78-0.04,8.87-0.78,12.26-2.22c0.08,0.52,0.2,1.96,0.33,4.3v8.29v12.26c0,1.78,0.16,2.83,0.49,3.13
		c0.33,0.31,1.45,0.46,3.36,0.46C159.65,50.94,159.89,51.09,159.89,51.4z M155.33,10.05c0,1.22-0.42,2.26-1.27,3.13
		c-0.85,0.87-1.87,1.31-3.07,1.31c-1.24,0-2.29-0.41-3.14-1.24c-0.84-0.83-1.27-1.87-1.27-3.13c0-1.22,0.42-2.22,1.27-3
		c0.85-0.78,1.93-1.17,3.27-1.17c1.2,0,2.2,0.39,3,1.17C154.93,7.89,155.33,8.87,155.33,10.05z"/>
	<path class="st0" d="M190.22,48.34c0,0.36-0.35,0.84-1.04,1.46c-1.87,1.72-4.17,2.58-6.91,2.58c-1.78,0-3.08-0.37-3.88-1.12
		c-0.81-0.75-1.34-2.09-1.6-4.03c-1.96,3.56-4.63,5.35-8.02,5.35c-1.87,0-3.38-0.59-4.53-1.76c-1.15-1.17-1.73-2.69-1.73-4.56
		c0-5.48,4.7-8.72,14.09-9.72v-1.37c0-4.35-0.15-7.02-0.46-8.02l-0.07-0.33c-0.61-2.17-2.15-3.26-4.63-3.26
		c-1.43,0-2.59,0.41-3.46,1.24c-0.87,0.83-1.31,1.63-1.31,2.41c0,0.44,0.52,0.7,1.57,0.78c1.57,0.13,2.35,1.09,2.35,2.87
		c0,0.96-0.32,1.75-0.94,2.38c-0.63,0.63-1.45,0.94-2.45,0.94c-1.26,0-2.29-0.38-3.1-1.14c-0.81-0.76-1.21-1.73-1.21-2.9
		c0-1.87,0.93-3.56,2.81-5.09c1.87-1.52,4.33-2.28,7.37-2.28c4.52,0,7.67,0.8,9.46,2.41c1.44,1.35,2.15,3.7,2.15,7.04v11.15
		c0,2.17,0.02,3.43,0.07,3.78c0.22,1.83,0.85,2.74,1.89,2.74c0.74,0,1.65-0.52,2.74-1.57c0.22-0.21,0.39-0.32,0.52-0.32
		C190.11,48.01,190.22,48.12,190.22,48.34z M176.59,40.57v-3.2c-4.22,0.83-6.33,3.22-6.33,7.17c0,3.04,1.04,4.56,3.13,4.56
		c1.17,0,2-0.65,2.48-1.96C176.35,45.85,176.59,43.66,176.59,40.57z"/>
	<path class="st0" d="M240.96,49.25c0,2.43-1.59,3.65-4.76,3.65c-4,0-7.2-1.26-9.59-3.79c-1.87-1.96-2.94-4.06-3.2-6.28l-0.65-5.36
		c-0.44-3.4-1.23-5.77-2.38-7.13c-1.15-1.35-3.01-2-5.58-1.96v14.85c0,3.44,0.02,5.3,0.07,5.56c0,0.74,0.3,1.26,0.91,1.54
		c0.61,0.28,1.76,0.42,3.46,0.42c1.05,0,1.57,0.2,1.57,0.59c0,0.35-0.26,0.52-0.78,0.52h-6.33h-1.04c-0.78,0-1.52,0-2.22,0h-4.7
		c-0.44,0-0.93,0-1.5,0c-0.48,0-0.78,0-0.91,0h-3c-0.61,0-0.91-0.16-0.91-0.47c0-0.35,0.89-0.57,2.68-0.64
		c1.48-0.09,2.35-0.44,2.61-1.05c0.13-0.3,0.2-1.22,0.2-2.75V13.26c0-2.27-0.05-3.61-0.13-4.02c-0.09-0.41-0.37-0.73-0.85-0.95
		c-0.61-0.26-1.59-0.39-2.94-0.39c-0.96,0-1.44-0.2-1.44-0.59c0-0.31,0.2-0.49,0.59-0.55c0.39-0.07,1.43-0.1,3.13-0.1h1.18
		c0.78,0,1.54,0,2.28,0h2.15c0.04,0,0.5,0,1.37,0c0.83,0,1.61,0,2.35,0h3.78c6.09,0,10.24,0.48,12.46,1.44
		c1.74,0.74,3.13,1.87,4.17,3.39c1.04,1.52,1.57,3.2,1.57,5.02c0,4.17-2.18,7.26-6.52,9.26c-1.91,0.87-4.74,1.52-8.48,1.96
		l-0.06,0.39c4.74,0.31,8.17,1.56,10.31,3.75c2.13,2.2,3.41,5.75,3.85,10.66c0.35,3.91,0.89,6.36,1.63,7.34
		c0.74,0.98,1.5,1.47,2.28,1.47c0.65,0,0.98-0.17,0.98-0.52c0-0.17-0.25-0.41-0.75-0.72c-0.5-0.3-0.75-0.74-0.75-1.3
		c0-1.18,0.65-1.76,1.96-1.76C240.31,47.03,240.96,47.77,240.96,49.25z M224.46,16.31c0-5.61-2.22-8.42-6.65-8.42
		c-1.44,0-2.33,0.48-2.68,1.44c-0.22,0.61-0.33,2.98-0.33,7.11v10.83c3.39,0.05,5.85-0.8,7.37-2.54
		C223.7,22.98,224.46,20.18,224.46,16.31z"/>
</g>
</svg>
