<svg version="1.1" id="Capa_1" xmlns="http://www.w3.org/2000/svg" x="0" y="0" viewBox="0 0 347.9 58.8" style="enable-background:new 0 0 347.9 58.8" xml:space="preserve"><style>.st0{fill:#010100}.st2{fill:#c99816}</style><path d="M54.8 29.8c.3 13.7-11.4 26.2-26.9 25.4C15.8 54.6 3.2 44.2 4 28 4.6 15.5 14.9 4 29.5 4c14 0 25.6 11.2 25.3 25.8z"/><path class="st0" d="M164.6 53.7h-18.2c-.1-.1-.1-.2-.2-.3.2-.1.4-.3.7-.4 1.1-.4 2.4-.7 2.9-1.9.3-.7.5-1.5.5-2.2v-36c0-.1 0-.3-.1-.6-.2.4-.3.6-.4.9-4.7 11-9.4 22.1-14.1 33.1-.9 2.1-1.8 4.3-2.7 6.4-.1.2-.1.5-.3.6-.3.2-.6.4-.9.4-.1 0-.4-.3-.4-.6-2.2-5.1-4.3-10.2-6.5-15.3-3.3-7.8-6.6-15.5-9.9-23.3-.1-.3-.3-.7-.6-1.2 0 .6-.1.9-.1 1.2V48c0 .8 0 1.6.2 2.4.4 1.4 1.5 2.2 3 2.5l.9.3c-.6.5-9.9.6-10.9.1.3-.1.6-.3.8-.4 3-.7 3.3-2.1 3.4-4.6.1-3.1 0-6.3 0-9.4V11.5c0-1-.2-2-.4-2.9-.4-1.5-1.7-1.9-3-2.3-.2-.1-.5-.2-.7-.3 0-.1.1-.2.1-.3h14.6c.6 0 1 .2 1.2.8l9.9 23.4c1 2.4 2.1 4.8 3.2 7.3 1.1-2.6 2.2-5.2 3.3-7.7 1.9-4.5 3.8-8.9 5.7-13.4 1.4-3.2 2.8-6.4 4.1-9.6.2-.5.4-.8 1-.8h13.2c.2 0 .4 0 .7.3-.4.2-.9.5-1.3.5-1.7.3-2.8 1.9-2.8 3.5V48.4c0 2.9.8 3.9 3.4 4.8.2.1.4.1.5.3.3-.1.2 0 .2.2z"/><path d="M329.6 53.5c0-8.1 0-16.2-.1-24.3 0-1.4-.2-2.8-.4-4.2-.3-1.8-1.7-2.7-3.5-2.9-2.2-.2-3.8.7-4.7 2.7-.2.5-.2 1.2-.2 1.7 0 4.5.1 9.1.1 13.6 0 2.9.1 5.8 0 8.6 0 2.1.4 3.8 2.7 4.3.2 0 .3.3.6.6h-13.7V28.9c0-1.4-.2-2.8-.5-4.2-.3-1.6-1.8-2.6-3.4-2.7-2-.2-3.5.4-4.4 2.2-.2.4-.3.9-.3 1.3v23.7c0 1.9.8 3 2.5 3.8.2.1.4.3.5.6h-13.3V27.7c0-1 0-2-.2-3-.2-1.2-.6-2.3-2.1-2.5-.6-.1-1.1-.3-1.9-.5.3-.2.4-.5.7-.6 4.4-1.2 8.9-2.4 13.4-3.6h.5v5.7c2.3-4.7 5.9-6.4 10.6-5.9 3.9.4 6.7 2.3 7.9 6.3.1-.2.3-.3.3-.4 2.6-5.1 7.5-7.1 13-5.5 3.9 1.1 6 4.4 6.1 8 .2 7.8.2 15.6.3 23.4 0 1.7 1.2 3.2 2.7 3.7.4.1 1.2.1 1.3.9h-14.2c-.2-.1-.2-.1-.3-.2zM82.7 26.5c.1 1.5.3 3.1.2 4.6-.3 5.7-1.3 11.2-4.1 16.2-1.2 2.1-2.7 4-4.9 5.2-3.4 1.9-5.9 1.3-8.6-.7-2.5-1.9-4-4.6-5.2-7.5-1.4-3.2-2.2-6.5-2.5-9.9-.3-2.9-.1-5.8 0-8.8.1-3.2.8-6.3 1.9-9.3 1.2-3.4 2.8-6.6 5.7-9 3.2-2.7 7.3-2.4 10.3.2 2.5 2.2 4.1 5 5.1 8.1.8 2.4 1.3 4.9 1.9 7.4.2 1.2.2 2.4.2 3.5z"/><path d="M229.4 3.8v44.9c0 2.5 1.1 3.8 3.5 4.5.2.1.4.2.5.6H219V48.6h-.1l-.3.6c-1.4 2.6-3.4 4.4-6.2 5.3-4.5 1.4-9.6-.4-12.5-4.5-1.9-2.6-2.9-5.6-3.2-8.8-.2-2.1-.4-4.3-.2-6.4.7-6.8 3.5-12.6 9.9-15.9 2.7-1.4 5.6-2 8.7-1.3 1.3.3 2.5.7 3.8 1.1l.1.1v-.2c0-2.4-.1-4.8-.2-7.2 0-1.1-.9-2-2-2.2-1.1-.2-2.3-.4-3.6-.6.3-.2.5-.4.8-.5 4.9-1.5 9.9-2.9 14.8-4.3h.4c.1-.1.2-.1.2 0zm-10.3 30.4V22.8c0-1.3-.6-2.1-1.5-2.8-1.6-1.1-4.8-1-6.5 1.2-2.4 3-3.1 6.4-3.3 10-.2 2.5.1 5.1.2 7.6.1 2.6.9 5 2.3 7.2 1.2 1.9 2.7 3.2 5.1 3.1 1.8-.1 3.9-1.6 3.8-3.8-.2-3.7-.1-7.4-.1-11.1z" style="fill:#010000"/><path d="M249.9 21.8c.2-.2.4-.5.7-.6 4.5-1.3 8.9-2.6 13.4-3.8h.4c0 .2.1.4.1.6v26.2c0 1.9 1.6 4.3 3.2 4.8 2.4.7 5-.8 5.8-2.2.2-.3.2-.7.2-1.1V27c0-.9-.1-1.7-.2-2.6-.2-1.2-.8-2.1-2.1-2.4-.4-.1-.7-.2-1.1-.5 4.5-1.7 9.1-2.9 13.8-4.3V49c0 2 1.2 3.3 3.5 4 .2.1.4.3.5.6h-14.3v-5.2c-.7 1-1.4 2-2.1 2.8-3.5 4.3-10.3 4.7-14.4 1.2-1.8-1.5-2.8-3.7-2.9-6.1-.2-6.1-.2-12.3-.2-18.4 0-1.1 0-2.3-.3-3.4-.3-1.6-1.1-2.2-3.2-2.5h-.5c-.2 0-.3-.1-.3-.2z"/><path class="st0" d="M194.4 40.3c-.5 1.7-.8 3.5-1.4 5.1-2 5.3-5.8 8.7-11.5 9.3-5.7.6-10.9-1.6-14.2-7-1.7-2.9-2.6-6.1-2.9-9.5-.5-5.6.6-10.8 4.1-15.3 2.3-3.1 5.5-4.9 9.4-5.4 3.6-.5 7 .1 10.2 1.9 3.8 2.2 5.6 5.8 6.2 10 .2 1.1.2 2.3.4 3.5h-21.9c.3 2 .4 3.8.9 5.5.8 2.7 2.4 5 4.7 6.7 4.1 2.9 8.3 2.3 11.9-.7 1.2-1 2-2.4 3-3.6.2-.3.5-.5.7-.7.1.1.2.2.4.2zm-8.8-9.3c-.1-1.1-.1-2.1-.2-3-.2-1.5-.3-3.1-.7-4.6-.5-2.1-1.8-3.6-4.1-3.9-2.1-.3-3.8.6-4.8 2.4-.8 1.4-1.5 3-2 4.6-.4 1.4-.5 3-.8 4.5h12.6z"/><path d="M236.7 53.7V27.8c0-1 0-2-.2-3-.4-1.9-1.1-2.2-3.2-2.6h-.8c.4-.4.5-.7.7-.8 4.4-1.3 8.8-2.6 13.3-3.8h.6v31.8c0 1.7 1.4 3.2 3.5 3.8.2.1.4.1.5.2v.4c-4.8-.1-9.6-.1-14.4-.1z"/><path class="st0" d="M85.6 37.7c-.1-3.4-.5-6.5-.3-9.5.2-5.3.4-10.6 1.9-15.8.4-1.3.9-2.5 1.5-3.6.7-1.2 1.8-1.1 2.4.1.8 1.8 1.5 3.8 1.9 5.7.5 2.6.9 5.2 1 7.8.2 4.2.1 8.4 0 12.6-.1 2.4-.2 4.9-.6 7.2-.4 2.4-1.1 4.9-1.8 7.2-.2.7-1.2 1.3-1.8 1.9-.6-.6-1.4-1.1-1.7-1.9-.7-2.2-1.3-4.5-1.8-6.7-.3-1.8-.5-3.6-.7-5zM241.3 15.2c-3.1.1-5.8-2.7-5.7-6 .1-2.8 2.3-5.3 5.8-5.4 3.2-.1 5.9 2.6 5.8 5.8-.1 3.6-2.7 5.6-5.9 5.6z"/><path class="st2" d="m218.7 49.1.3-.6h.1v.6h-.4z"/><path d="m229.4 3.8-.2-.2c.1.1.2.1.2.2z" style="fill:#211906"/><path class="st2" d="M219.1 18.5v.2l-.1-.1c-.1-.1 0-.1.1-.1z"/><path d="m329.6 53.5.2.2-.2-.2z" style="fill:#151005"/></svg>