<?xml version="1.0" encoding="utf-8"?>
<!-- Generator: Adobe Illustrator 27.7.0, SVG Export Plug-In . SVG Version: 6.00 Build 0)  -->
<svg version="1.1" id="Capa_1" xmlns="http://www.w3.org/2000/svg" xmlns:xlink="http://www.w3.org/1999/xlink" x="0px" y="0px"
	 viewBox="0 0 30 30" style="enable-background:new 0 0 30 30;" xml:space="preserve">
<g>
	<path d="M15,1.04c7.62-0.08,13.92,6.21,13.78,14.06c-0.14,7.38-6.22,13.54-13.91,13.48c-7.42-0.06-13.81-6.12-13.64-14.1
		C1.39,6.98,7.49,0.98,15,1.04z M22.07,12.06c-0.11,0.01-0.14,0.07-0.18,0.11c-0.38,0.37-0.76,0.75-1.13,1.13
		c-1.87,1.87-3.73,3.73-5.6,5.6c-0.06,0.06-0.11,0.11-0.18,0.16c-0.37,0.3-0.57,0.31-0.93-0.01c-0.27-0.24-0.52-0.49-0.78-0.75
		c-1.23-1.23-2.47-2.45-3.69-3.69c-0.13-0.13-0.21-0.16-0.34,0c-0.1,0.14-0.24,0.25-0.36,0.37c-1.66,1.67-3.32,3.33-4.98,4.99
		c-0.1,0.1-0.16,0.18-0.08,0.33c0.98,1.94,2.37,3.53,4.15,4.76c2.42,1.68,5.11,2.33,8.04,2.12c1.51-0.11,2.94-0.51,4.31-1.16
		c1.69-0.8,3.13-1.92,4.29-3.36c2.53-3.11,3.32-6.69,2.5-10.59c-0.66-3.12-2.36-5.58-4.96-7.43c-1.71-1.22-3.59-1.94-5.66-2.19
		c-2.38-0.29-4.68,0.04-6.83,1.11C5.71,5.53,3.36,8.7,2.7,13.09c-0.27,1.77-0.11,3.51,0.36,5.23c0.13,0.48,0.13,0.47,0.48,0.12
		c1.75-1.75,3.5-3.5,5.24-5.25c0.52-0.52,0.71-0.52,1.24,0.01c1.43,1.43,2.86,2.85,4.29,4.28c0.16,0.16,0.24,0.14,0.39-0.01
		c1.49-1.5,3-3,4.5-4.5c0.57-0.57,1.15-1.15,1.72-1.72c0.04-0.04,0.11-0.07,0.08-0.13c-0.03-0.06-0.1-0.04-0.16-0.04
		c-0.6,0-1.21,0-1.81-0.01c-0.17,0-0.35-0.01-0.52-0.03c-0.39-0.05-0.57-0.26-0.58-0.64c-0.01-0.37,0.19-0.6,0.56-0.67
		c0.14-0.03,0.29-0.03,0.43-0.03c1.17,0,2.34,0,3.51,0c0.1,0,0.2,0,0.3,0.01c0.49,0.06,0.68,0.25,0.68,0.74
		c0.01,1.34,0.01,2.68,0,4.01c0,0.51-0.26,0.73-0.74,0.71c-0.36-0.01-0.51-0.14-0.59-0.5c-0.03-0.12-0.03-0.24-0.03-0.36
		C22.07,13.57,22.07,12.82,22.07,12.06z"/>
</g>
</svg>
